<?xml version="1.0" encoding="UTF-8"?>
<svg width="35px" height="28px" viewBox="0 0 35 28" version="1.1" xmlns="http://www.w3.org/2000/svg" xmlns:xlink="http://www.w3.org/1999/xlink">
    <!-- Generator: Sketch 52.3 (67297) - http://www.bohemiancoding.com/sketch -->
    <title>“</title>
    <desc>Created with Sketch.</desc>
    <g id="Page-1" stroke="none" stroke-width="1" fill="none" fill-rule="evenodd">
        <g id="Benediktinky_sk-Copy" transform="translate(-383.000000, -1854.000000)" fill="#CBCBCB">
            <path d="M392.636914,1854 L399.838124,1858.23755 C396.802305,1863.10092 395.231468,1868.03573 395.125567,1873.04215 L395.125567,1882 L383,1882 L383,1873.95402 C383,1870.59258 383.926617,1867.00768 385.779879,1863.19923 C387.633141,1859.39079 389.918796,1856.3244 392.636914,1854 Z M410.79879,1854 L418,1858.23755 C414.96418,1863.10092 413.393344,1868.03573 413.287443,1873.04215 L413.287443,1882 L401.161876,1882 L401.161876,1873.95402 C401.161876,1870.59258 402.088493,1867.00768 403.941755,1863.19923 C405.795017,1859.39079 408.080672,1856.3244 410.79879,1854 Z" id="“"></path>
        </g>
    </g>
</svg>