<?xml version="1.0" standalone="no"?>
<!DOCTYPE svg PUBLIC "-//W3C//DTD SVG 20010904//EN"
 "http://www.w3.org/TR/2001/REC-SVG-20010904/DTD/svg10.dtd">
<svg version="1.0" xmlns="http://www.w3.org/2000/svg"
 width="1280.000000pt" height="1280.000000pt" viewBox="0 0 1280.000000 1280.000000"
 preserveAspectRatio="xMidYMid meet">

<g transform="translate(0.000000,1280.000000) scale(0.100000,-0.100000)"
fill="#000000" stroke="none">
<path d="M5400 12215 c-255 -48 -467 -182 -614 -389 -25 -35 -46 -66 -46 -70
0 -3 17 -6 38 -6 68 0 217 -37 294 -73 238 -109 398 -299 471 -556 l22 -76 3
-1907 2 -1908 -1859 0 c-1270 0 -1884 3 -1938 11 -102 14 -210 50 -303 102
-90 51 -248 204 -299 289 -64 110 -106 239 -118 361 -3 37 -8 67 -11 67 -15 0
-141 -100 -197 -157 -189 -191 -288 -455 -272 -727 15 -246 127 -483 305 -647
37 -33 88 -74 114 -91 27 -17 48 -34 48 -37 0 -3 -21 -19 -48 -36 -78 -48
-231 -211 -283 -300 -87 -150 -125 -275 -136 -441 -16 -272 83 -538 274 -729
61 -60 181 -155 197 -155 3 0 6 17 6 38 0 68 37 217 72 293 110 239 299 399
557 472 l76 22 1908 3 1907 2 0 -1859 c0 -1270 -3 -1884 -11 -1938 -14 -102
-50 -210 -102 -303 -51 -90 -204 -248 -289 -299 -110 -64 -239 -106 -360 -118
-38 -3 -68 -8 -68 -11 0 -15 98 -137 156 -195 191 -190 454 -289 723 -274 293
16 591 184 743 418 17 27 34 49 38 49 4 0 21 -23 39 -51 84 -128 218 -242 376
-320 122 -59 228 -87 361 -96 329 -20 645 132 840 403 24 34 44 64 44 68 0 3
-15 6 -33 6 -18 0 -60 5 -93 11 -332 58 -583 287 -677 618 l-22 76 -3 1908 -2
1907 1907 -2 1908 -3 76 -22 c98 -28 192 -71 265 -121 69 -47 178 -157 224
-225 73 -109 124 -256 137 -391 3 -36 8 -66 11 -66 2 0 32 20 66 44 390 280
517 794 300 1221 -69 135 -205 290 -320 362 -24 15 -44 31 -44 34 0 3 21 20
48 37 130 85 247 221 322 376 61 124 89 230 97 362 16 272 -82 534 -272 727
-57 57 -182 157 -197 157 -3 0 -8 -30 -11 -67 -12 -122 -54 -251 -118 -361
-51 -85 -209 -238 -299 -289 -93 -52 -201 -88 -303 -102 -54 -8 -668 -11
-1938 -11 l-1859 0 2 1908 3 1907 22 76 c74 259 232 446 471 556 77 36 226 73
295 73 20 0 37 3 37 6 0 4 -20 34 -44 68 -194 271 -500 420 -831 403 -170 -9
-301 -49 -459 -142 -81 -47 -237 -196 -286 -272 -18 -29 -36 -53 -40 -53 -4 0
-22 24 -40 53 -18 28 -74 93 -125 142 -125 123 -263 202 -432 246 -103 27
-299 34 -403 14z"/>
</g>
</svg>
