<svg version="1.0" xmlns="http://www.w3.org/2000/svg" width="1706.667" height="1706.667" viewBox="0 0 1280 1280"><path d="M540 58.5c-25.5 4.8-46.7 18.2-61.4 38.9-2.5 3.5-4.6 6.6-4.6 7 0 .3 1.7.6 3.8.6 6.8 0 21.7 3.7 29.4 7.3 23.8 10.9 39.8 29.9 47.1 55.6l2.2 7.6.3 190.7.2 190.8H371.1c-127 0-188.4-.3-193.8-1.1-10.2-1.4-21-5-30.3-10.2-9-5.1-24.8-20.4-29.9-28.9-6.4-11-10.6-23.9-11.8-36.1-.3-3.7-.8-6.7-1.1-6.7-1.5 0-14.1 10-19.7 15.7-18.9 19.1-28.8 45.5-27.2 72.7 1.5 24.6 12.7 48.3 30.5 64.7 3.7 3.3 8.8 7.4 11.4 9.1 2.7 1.7 4.8 3.4 4.8 3.7 0 .3-2.1 1.9-4.8 3.6-7.8 4.8-23.1 21.1-28.3 30-8.7 15-12.5 27.5-13.6 44.1-1.6 27.2 8.3 53.8 27.4 72.9 6.1 6 18.1 15.5 19.7 15.5.3 0 .6-1.7.6-3.8 0-6.8 3.7-21.7 7.2-29.3 11-23.9 29.9-39.9 55.7-47.2l7.6-2.2 190.8-.3L557 723v185.9c0 127-.3 188.4-1.1 193.8-1.4 10.2-5 21-10.2 30.3-5.1 9-20.4 24.8-28.9 29.9-11 6.4-23.9 10.6-36 11.8-3.8.3-6.8.8-6.8 1.1 0 1.5 9.8 13.7 15.6 19.5 19.1 19 45.4 28.9 72.3 27.4 29.3-1.6 59.1-18.4 74.3-41.8 1.7-2.7 3.4-4.9 3.8-4.9.4 0 2.1 2.3 3.9 5.1 8.4 12.8 21.8 24.2 37.6 32 12.2 5.9 22.8 8.7 36.1 9.6 32.9 2 64.5-13.2 84-40.3 2.4-3.4 4.4-6.4 4.4-6.8 0-.3-1.5-.6-3.3-.6-1.8 0-6-.5-9.3-1.1-33.2-5.8-58.3-28.7-67.7-61.8l-2.2-7.6-.3-190.8L723 723l190.7.2 190.8.3 7.6 2.2c9.8 2.8 19.2 7.1 26.5 12.1 6.9 4.7 17.8 15.7 22.4 22.5 7.3 10.9 12.4 25.6 13.7 39.1.3 3.6.8 6.6 1.1 6.6.2 0 3.2-2 6.6-4.4 39-28 51.7-79.4 30-122.1-6.9-13.5-20.5-29-32-36.2-2.4-1.5-4.4-3.1-4.4-3.4 0-.3 2.1-2 4.8-3.7 13-8.5 24.7-22.1 32.2-37.6 6.1-12.4 8.9-23 9.7-36.2 1.6-27.2-8.2-53.4-27.2-72.7-5.7-5.7-18.2-15.7-19.7-15.7-.3 0-.8 3-1.1 6.7-1.2 12.2-5.4 25.1-11.8 36.1-5.1 8.5-20.9 23.8-29.9 28.9-9.3 5.2-20.1 8.8-30.3 10.2-5.4.8-66.8 1.1-193.8 1.1H723l.2-190.8.3-190.7 2.2-7.6c7.4-25.9 23.2-44.6 47.1-55.6 7.7-3.6 22.6-7.3 29.5-7.3 2 0 3.7-.3 3.7-.6 0-.4-2-3.4-4.4-6.8-19.4-27.1-50-42-83.1-40.3-17 .9-30.1 4.9-45.9 14.2-8.1 4.7-23.7 19.6-28.6 27.2-1.8 2.9-3.6 5.3-4 5.3-.4 0-2.2-2.4-4-5.3-1.8-2.8-7.4-9.3-12.5-14.2-12.5-12.3-26.3-20.2-43.2-24.6-10.3-2.7-29.9-3.4-40.3-1.4z"/></svg>